<svg width="140" height="28" viewBox="0 0 140 28" fill="none" xmlns="http://www.w3.org/2000/svg"><path d="M128.106 27.3066H128.406V27.0066V23.801V23.501H128.106H126.558C125.921 23.501 125.497 23.3338 125.228 23.051C124.957 22.7651 124.795 22.3092 124.795 21.6271V11.8313H128.106H128.406V11.5313V8.6573V8.3573H128.106H124.795V2.98303V2.68303H124.495H120.737H120.437V2.98303V8.3573H118.6H118.3V8.6573V11.5313V11.8313H118.6H120.437V21.8113C120.437 23.327 120.901 24.6273 121.838 25.6938C122.792 26.7803 124.147 27.3066 125.858 27.3066H128.106Z" fill="#000" stroke="#000" stroke-width="0.6"></path><path d="M139 27.3066H139.3V27.0066V23.801V23.501H139H137.453C136.815 23.501 136.391 23.3338 136.123 23.051C135.852 22.7651 135.689 22.3092 135.689 21.6271V11.8313H139H139.3V11.5313V8.6573V8.3573H139H135.689V2.98303V2.68303H135.389H131.631H131.331V2.98303V8.3573H129.494H129.194V8.6573V11.5313V11.8313H129.494H131.331V21.8113C131.331 23.327 131.796 24.6273 132.732 25.6938C133.686 26.7803 135.042 27.3066 136.753 27.3066H139Z" fill="#000" stroke="#000" stroke-width="0.6"></path><path d="M116.821 27.3067H117.121V27.0067V14.5159C117.121 12.3167 116.458 10.6177 115.088 9.47698C113.728 8.34499 111.722 7.80474 109.121 7.80474C107.503 7.80474 106.16 8.00337 105.106 8.4148C104.043 8.82941 103.071 9.56333 102.186 10.5997L102.001 10.8172L102.209 11.013L104.678 13.3343L104.918 13.56L105.12 13.3C105.615 12.6639 106.132 12.2334 106.666 11.9884C107.2 11.7436 107.962 11.6103 108.973 11.6103C110.37 11.6103 111.312 11.8895 111.87 12.3825L111.869 12.3825L111.874 12.3862C112.447 12.8747 112.763 13.6598 112.763 14.8107V15.8371H108.126C105.994 15.8371 104.316 16.3385 103.136 17.3868C101.96 18.4321 101.378 19.819 101.378 21.5166C101.378 23.2266 101.89 24.6436 102.934 25.7397L102.934 25.7398L102.939 25.745C104.144 26.9499 105.903 27.5278 108.163 27.5278C109.315 27.5278 110.289 27.3779 111.073 27.0647C111.689 26.8261 112.277 26.4681 112.837 25.9955V27.0067V27.3067H113.137H116.821ZM108.678 19.0532H112.763V20.2639C112.763 21.537 112.497 22.3575 112.042 22.8134C111.385 23.4471 110.312 23.7959 108.752 23.7959C107.64 23.7959 106.862 23.5792 106.366 23.1954C105.885 22.8229 105.625 22.2576 105.625 21.4429C105.625 20.6123 105.881 20.037 106.351 19.6596C106.834 19.2722 107.593 19.0532 108.678 19.0532Z" fill="#000" stroke="#000" stroke-width="0.6"></path><path d="M100.808 8.41506L100.929 8.02581H100.521H96.5051H96.2764L96.2158 8.24639L92.8688 20.439L88.8684 8.23238L88.8007 8.02581H88.5833H85.6724H85.4556L85.3876 8.23166L81.3512 20.4434L78.003 8.24639L77.9425 8.02581H77.7137H73.7344H73.3274L73.4478 8.41455L79.2326 27.0954L79.298 27.3067H79.5192H82.7616H82.9778L83.0462 27.1015L87.1106 14.9083L91.2097 27.1023L91.2784 27.3067H91.4941H94.6997H94.9204L94.9861 27.0959L100.808 8.41506Z" fill="#000" stroke="#000" stroke-width="0.6"></path><path d="M72.8136 27.3067H73.1136V27.0067V14.5159C73.1136 12.3167 72.4506 10.6177 71.0803 9.47698C69.7206 8.34499 67.7139 7.80474 65.1128 7.80474C63.495 7.80474 62.1524 8.00337 61.0981 8.4148C60.0356 8.82941 59.0634 9.56333 58.1787 10.5997L57.993 10.8172L58.2013 11.013L60.67 13.3343L60.91 13.56L61.1123 13.3C61.607 12.6639 62.1239 12.2334 62.6586 11.9884C63.1925 11.7436 63.9542 11.6103 64.9654 11.6103C66.3625 11.6103 67.3044 11.8895 67.8617 12.3825L67.8617 12.3825L67.8659 12.3862C68.4395 12.8747 68.7553 13.6598 68.7553 14.8107V15.8371H64.118C61.9866 15.8371 60.3079 16.3385 59.1287 17.3868C57.9527 18.4321 57.3699 19.819 57.3699 21.5166C57.3699 23.2266 57.8826 24.6436 58.9265 25.7397L58.9265 25.7398L58.9316 25.745C60.1365 26.9499 61.8956 27.5278 64.1548 27.5278C65.3073 27.5278 66.2813 27.3779 67.065 27.0647C67.681 26.8261 68.2688 26.4681 68.829 25.9955V27.0067V27.3067H69.129H72.8136ZM64.6706 19.0532H68.7553V20.2639C68.7553 21.537 68.4888 22.3575 68.0343 22.8134C67.3774 23.4471 66.3037 23.7959 64.7443 23.7959C63.6325 23.7959 62.8537 23.5792 62.358 23.1954C61.8768 22.8229 61.6177 22.2576 61.6177 21.4429C61.6177 20.6123 61.8733 20.037 62.3436 19.6596C62.8266 19.2722 63.5852 19.0532 64.6706 19.0532Z" fill="#000" stroke="#000" stroke-width="0.6"></path><path d="M56.5308 27.3066H56.8308V27.0066V23.801V23.501H56.5308H54.8727C54.1798 23.501 53.7542 23.3398 53.5156 23.089C53.2856 22.7957 53.1462 22.325 53.1462 21.6271V0.772339V0.472339H52.8462H49.0879H48.7879V0.772339V21.8482C48.7879 23.4078 49.2371 24.7219 50.1517 25.7672L50.1517 25.7672L50.1542 25.77C51.0875 26.8099 52.4579 27.3066 54.2095 27.3066H56.5308Z" fill="#000" stroke="#000" stroke-width="0.6"></path><path d="M47.2769 27.3066H47.5769V27.0066V23.801V23.501H47.2769H45.6188C44.9259 23.501 44.5003 23.3398 44.2617 23.089C44.0317 22.7957 43.8923 22.325 43.8923 21.6271V0.772339V0.472339H43.5923H39.834H39.534V0.772339V21.8482C39.534 23.4078 39.9832 24.7219 40.8978 25.7672L40.8978 25.7672L40.9003 25.77C41.8336 26.8099 43.2039 27.3066 44.9556 27.3066H47.2769Z" fill="#000" stroke="#000" stroke-width="0.6"></path><path d="M37.3789 19.0532H37.6789V18.7532V17.0951C37.6789 14.3395 36.9514 12.0905 35.4695 10.378C34.0042 8.6563 31.9875 7.80474 29.457 7.80474C26.9469 7.80474 24.931 8.68387 23.4433 10.4532C21.9582 12.1948 21.2352 14.6062 21.2352 17.6478C21.2352 21.0253 22.0039 23.5519 23.6075 25.1554C25.197 26.745 27.3177 27.5278 29.936 27.5278C31.5346 27.5278 32.8818 27.2909 33.9641 26.8016C35.0607 26.3168 36.1218 25.5561 37.1489 24.5291L37.3678 24.3101L37.142 24.0982L34.7471 21.8506L34.5351 21.6517L34.3296 21.8572C33.6595 22.5273 33.0137 22.9933 32.3934 23.269C31.7803 23.5415 30.9901 23.6853 30.0097 23.6853C28.5531 23.6853 27.4637 23.242 26.6976 22.3868C25.9969 21.579 25.6087 20.4777 25.5615 19.0532H37.3789ZM32.8652 13.7114L32.8651 13.7114L32.8679 13.7175C33.1345 14.3124 33.2957 15.0171 33.3446 15.8371H25.5682C25.6141 14.9717 25.7647 14.268 26.0097 13.7166L26.0098 13.7167L26.0128 13.7095C26.2834 13.0556 26.7209 12.5388 27.3324 12.1537L27.3325 12.1538L27.339 12.1495C27.949 11.7428 28.6516 11.5366 29.457 11.5366C30.3095 11.5366 31.0055 11.7231 31.5613 12.0789C32.1161 12.4339 32.5531 12.9715 32.8652 13.7114Z" fill="#000" stroke="#000" stroke-width="0.6"></path><path d="M17.5579 25.3157L17.5601 25.3138C19.0858 23.9432 19.8335 22.0244 19.8335 19.6006C19.8335 18.0034 19.44 16.6483 18.634 15.5554C17.9982 14.666 17.219 13.9829 16.2979 13.5106C17.0641 13.0774 17.7328 12.4476 18.3051 11.6302C19.0557 10.5687 19.4282 9.34056 19.4282 7.95729C19.4282 5.67642 18.69 3.84595 17.1924 2.50274C15.6992 1.13881 13.6922 0.472339 11.2063 0.472339H1H0.7V0.772339V27.0066V27.3066H1H11.6116C14.0496 27.3066 16.0419 26.6519 17.5579 25.3157ZM13.7727 5.56745L13.7726 5.56759L13.7806 5.57406C14.483 6.14481 14.8488 6.97246 14.8488 8.10467C14.8488 9.23645 14.4831 10.0792 13.7766 10.6754C13.084 11.2561 12.128 11.563 10.8747 11.563H5.27936V4.64639H10.8747C12.1256 4.64639 13.0801 4.96422 13.7727 5.56745ZM14.2033 16.758C14.8995 17.4317 15.2541 18.3085 15.2541 19.4164C15.2541 20.5508 14.8982 21.4391 14.2033 22.1116C13.512 22.7806 12.5387 23.1326 11.2432 23.1326H5.27936V15.737H11.2432C12.5387 15.737 13.512 16.089 14.2033 16.758Z" fill="#000" stroke="#000" stroke-width="0.6"></path></svg>